M48
; DRILL file {KiCad (6.0.5)} date Sat May 21 21:36:46 2022
; FORMAT={-:-/ absolute / inch / decimal}
; #@! TF.CreationDate,2022-05-21T21:36:46-04:00
; #@! TF.GenerationSoftware,Kicad,Pcbnew,(6.0.5)
; #@! TF.FileFunction,Plated,1,2,PTH
FMAT,2
INCH
; #@! TA.AperFunction,Plated,PTH,ViaDrill
T1C0.0157
; #@! TA.AperFunction,Plated,PTH,ComponentDrill
T2C0.0236
; #@! TA.AperFunction,Plated,PTH,ComponentDrill
T3C0.0315
; #@! TA.AperFunction,Plated,PTH,ComponentDrill
T4C0.0354
; #@! TA.AperFunction,Plated,PTH,ComponentDrill
T5C0.0394
; #@! TA.AperFunction,Plated,PTH,ComponentDrill
T6C0.0433
; #@! TA.AperFunction,Plated,PTH,ComponentDrill
T7C0.0469
; #@! TA.AperFunction,Plated,PTH,ComponentDrill
T8C0.0472
%
G90
G05
T1
X1.95Y-1.75
X1.95Y-1.85
X1.95Y-1.95
X1.95Y-2.05
X1.95Y-2.35
X1.95Y-2.45
X1.95Y-2.55
X1.95Y-2.65
X2.0Y-1.8
X2.0Y-1.9
X2.0Y-2.1
X2.0Y-2.3
X2.0Y-2.4
X2.0Y-2.5
X2.0Y-2.6
X2.05Y-1.75
X2.05Y-1.85
X2.05Y-1.95
X2.05Y-2.05
X2.05Y-2.35
X2.05Y-2.45
X2.05Y-2.55
X2.1Y-1.8
X2.1Y-1.9
X2.1Y-2.4
X2.1Y-2.5
X2.1Y-2.6
X2.125Y-1.725
X2.125Y-2.125
X2.125Y-2.275
X2.125Y-2.675
X2.15Y-1.55
X2.15Y-1.85
X2.15Y-1.95
X2.15Y-2.45
X2.15Y-2.55
X2.15Y-2.85
X2.175Y-2.1
X2.175Y-2.175
X2.175Y-2.225
X2.175Y-2.3
X2.2Y-1.65
X2.2Y-1.9
X2.2Y-2.0
X2.2Y-2.4
X2.2Y-2.5
X2.2Y-2.72
X2.25Y-1.575
X2.25Y-1.65
X2.25Y-1.95
X2.25Y-2.45
X2.25Y-2.75
X2.275Y-2.825
X2.3Y-1.65
X2.3Y-1.9
X2.3Y-2.0
X2.3Y-2.4
X2.3Y-2.5
X2.3Y-2.72
X2.35Y-1.55
X2.35Y-1.65
X2.35Y-1.7
X2.35Y-1.75
X2.35Y-1.8
X2.35Y-1.95
X2.35Y-2.05
X2.35Y-2.35
X2.35Y-2.45
X2.35Y-2.6
X2.35Y-2.675
X2.35Y-2.75
X2.4Y-1.7
X2.4Y-1.8
X2.4Y-1.9
X2.4Y-2.0
X2.4Y-2.1
X2.4Y-2.2
X2.4Y-2.3
X2.4Y-2.4
X2.4Y-2.5
X2.4Y-2.6
X2.4Y-2.7
X2.4Y-2.85
X2.45Y-1.575
X2.45Y-1.65
X2.45Y-1.75
X2.45Y-1.95
X2.45Y-2.05
X2.45Y-2.15
X2.45Y-2.25
X2.45Y-2.35
X2.45Y-2.45
X2.45Y-2.65
X2.45Y-2.75
X2.5Y-1.7
X2.5Y-1.8
X2.5Y-1.9
X2.5Y-2.0
X2.5Y-2.1
X2.5Y-2.2
X2.5Y-2.3
X2.5Y-2.4
X2.5Y-2.5
X2.5Y-2.6
X2.5Y-2.7
X2.5Y-2.825
X2.55Y-1.55
X2.55Y-1.65
X2.55Y-1.75
X2.55Y-1.95
X2.55Y-2.05
X2.55Y-2.15
X2.55Y-2.25
X2.55Y-2.35
X2.55Y-2.45
X2.55Y-2.65
X2.55Y-2.75
X2.6Y-1.8
X2.6Y-1.9
X2.6Y-2.1
X2.6Y-2.2
X2.6Y-2.3
X2.6Y-2.5
X2.6Y-2.6
X2.6Y-2.85
X2.65Y-1.575
X2.65Y-2.15
X2.65Y-2.25
X2.7Y-1.8
X2.7Y-1.9
X2.7Y-2.1
X2.7Y-2.2
X2.7Y-2.3
X2.7Y-2.5
X2.7Y-2.6
X2.7Y-2.825
X2.75Y-1.55
X2.75Y-1.65
X2.75Y-1.75
X2.75Y-1.95
X2.75Y-2.05
X2.75Y-2.15
X2.75Y-2.25
X2.75Y-2.35
X2.75Y-2.45
X2.75Y-2.65
X2.75Y-2.75
X2.8Y-1.7
X2.8Y-1.8
X2.8Y-1.9
X2.8Y-2.0
X2.8Y-2.1
X2.8Y-2.2
X2.8Y-2.3
X2.8Y-2.4
X2.8Y-2.5
X2.8Y-2.6
X2.8Y-2.7
X2.8Y-2.85
X2.85Y-1.575
X2.85Y-1.65
X2.85Y-1.75
X2.85Y-1.95
X2.85Y-2.05
X2.85Y-2.15
X2.85Y-2.25
X2.85Y-2.35
X2.85Y-2.45
X2.85Y-2.65
X2.85Y-2.75
X2.9Y-1.7
X2.9Y-1.8
X2.9Y-1.9
X2.9Y-2.0
X2.9Y-2.1
X2.9Y-2.2
X2.9Y-2.3
X2.9Y-2.4
X2.9Y-2.5
X2.9Y-2.6
X2.9Y-2.7
X2.9Y-2.825
X2.95Y-1.55
X2.95Y-1.65
X2.95Y-1.75
X2.95Y-1.95
X2.95Y-2.05
X2.95Y-2.15
X2.95Y-2.25
X2.95Y-2.35
X2.95Y-2.45
X2.95Y-2.65
X2.95Y-2.75
X3.0Y-1.7
X3.0Y-1.8
X3.0Y-1.9
X3.0Y-2.0
X3.0Y-2.1
X3.0Y-2.2
X3.0Y-2.3
X3.0Y-2.4
X3.0Y-2.5
X3.0Y-2.6
X3.0Y-2.7
X3.0Y-2.85
X3.05Y-1.575
X3.05Y-1.65
X3.05Y-1.75
X3.05Y-1.95
X3.05Y-2.05
X3.05Y-2.15
X3.05Y-2.25
X3.05Y-2.35
X3.05Y-2.45
X3.05Y-2.65
X3.05Y-2.75
X3.1Y-1.7
X3.1Y-1.8
X3.1Y-1.9
X3.1Y-2.0
X3.1Y-2.1
X3.1Y-2.2
X3.1Y-2.3
X3.1Y-2.4
X3.1Y-2.5
X3.1Y-2.6
X3.1Y-2.7
X3.1Y-2.825
X3.15Y-1.55
X3.15Y-1.65
X3.15Y-1.75
X3.15Y-1.95
X3.15Y-2.05
X3.15Y-2.25
X3.15Y-2.35
X3.15Y-2.45
X3.15Y-2.65
X3.15Y-2.75
X3.1594Y-2.1457
X3.2Y-1.7
X3.2Y-1.8
X3.2Y-1.9
X3.2Y-2.0
X3.2Y-2.1
X3.2Y-2.2
X3.2Y-2.3
X3.2Y-2.4
X3.2Y-2.5
X3.2Y-2.6
X3.2Y-2.7
X3.2Y-2.85
X3.25Y-1.575
X3.25Y-1.65
X3.25Y-1.75
X3.25Y-1.95
X3.25Y-2.05
X3.25Y-2.15
X3.25Y-2.25
X3.25Y-2.35
X3.25Y-2.45
X3.25Y-2.65
X3.25Y-2.75
X3.3Y-1.8
X3.3Y-1.9
X3.3Y-2.1
X3.3Y-2.2
X3.3Y-2.3
X3.3Y-2.5
X3.3Y-2.6
X3.3Y-2.825
X3.35Y-1.55
X3.35Y-2.15
X3.35Y-2.25
X3.4Y-1.8
X3.4Y-1.9
X3.4Y-2.1
X3.4Y-2.2
X3.4Y-2.3
X3.4Y-2.5
X3.4Y-2.6
X3.4Y-2.85
X3.45Y-1.575
X3.45Y-1.65
X3.45Y-1.75
X3.45Y-1.95
X3.45Y-2.05
X3.45Y-2.15
X3.45Y-2.25
X3.45Y-2.35
X3.45Y-2.45
X3.45Y-2.65
X3.45Y-2.75
X3.5Y-1.7
X3.5Y-1.8
X3.5Y-1.9
X3.5Y-2.0
X3.5Y-2.1
X3.5Y-2.2
X3.5Y-2.3
X3.5Y-2.4
X3.5Y-2.5
X3.5Y-2.6
X3.5Y-2.7
X3.5Y-2.825
X3.55Y-1.55
X3.55Y-1.65
X3.55Y-1.75
X3.55Y-1.95
X3.55Y-2.05
X3.55Y-2.15
X3.55Y-2.25
X3.55Y-2.35
X3.55Y-2.45
X3.55Y-2.65
X3.55Y-2.75
X3.6Y-1.7
X3.6Y-1.8
X3.6Y-1.9
X3.6Y-2.0
X3.6Y-2.1
X3.6Y-2.2
X3.6Y-2.3
X3.6Y-2.4
X3.6Y-2.5
X3.6Y-2.6
X3.6Y-2.7
X3.6Y-2.85
X3.65Y-1.575
X3.65Y-1.65
X3.65Y-1.75
X3.65Y-1.95
X3.65Y-2.05
X3.65Y-2.15
X3.65Y-2.25
X3.65Y-2.35
X3.65Y-2.45
X3.65Y-2.65
X3.65Y-2.75
X3.7Y-1.7
X3.7Y-1.8
X3.7Y-1.9
X3.7Y-2.0
X3.7Y-2.1
X3.7Y-2.2
X3.7Y-2.3
X3.7Y-2.4
X3.7Y-2.5
X3.7Y-2.6
X3.7Y-2.7
X3.7Y-2.825
X3.75Y-1.55
X3.75Y-1.65
X3.75Y-1.75
X3.75Y-1.95
X3.75Y-2.05
X3.75Y-2.15
X3.75Y-2.25
X3.75Y-2.35
X3.75Y-2.45
X3.75Y-2.65
X3.75Y-2.75
X3.8Y-1.7
X3.8Y-1.8
X3.8Y-1.9
X3.8Y-2.0
X3.8Y-2.1
X3.8Y-2.2
X3.8Y-2.3
X3.8Y-2.4
X3.8Y-2.5
X3.8Y-2.6
X3.8Y-2.7
X3.8Y-2.85
X3.85Y-1.575
X3.85Y-1.65
X3.85Y-1.75
X3.85Y-1.95
X3.85Y-2.05
X3.85Y-2.15
X3.85Y-2.25
X3.85Y-2.35
X3.85Y-2.45
X3.85Y-2.65
X3.85Y-2.75
X3.9Y-1.7
X3.9Y-1.8
X3.9Y-1.9
X3.9Y-2.0
X3.9Y-2.1
X3.9Y-2.2
X3.9Y-2.3
X3.9Y-2.4
X3.9Y-2.5
X3.9Y-2.6
X3.9Y-2.7
X3.9Y-2.825
X3.95Y-1.55
X3.95Y-1.65
X3.95Y-1.75
X3.95Y-1.95
X3.95Y-2.05
X3.95Y-2.15
X3.95Y-2.25
X3.95Y-2.35
X3.95Y-2.45
X3.95Y-2.65
X3.95Y-2.75
X4.0Y-1.8
X4.0Y-1.9
X4.0Y-2.1
X4.0Y-2.2
X4.0Y-2.3
X4.0Y-2.5
X4.0Y-2.6
X4.0Y-2.85
X4.05Y-1.575
X4.05Y-2.15
X4.05Y-2.25
X4.1Y-1.8
X4.1Y-1.9
X4.1Y-2.1
X4.1Y-2.2
X4.1Y-2.3
X4.1Y-2.5
X4.1Y-2.6
X4.1Y-2.825
X4.15Y-1.55
X4.15Y-1.65
X4.15Y-1.75
X4.15Y-1.95
X4.15Y-2.05
X4.15Y-2.15
X4.15Y-2.25
X4.15Y-2.35
X4.15Y-2.45
X4.15Y-2.65
X4.15Y-2.75
X4.2Y-1.7
X4.2Y-1.8
X4.2Y-1.9
X4.2Y-2.0
X4.2Y-2.1
X4.2Y-2.2
X4.2Y-2.3
X4.2Y-2.4
X4.2Y-2.5
X4.2Y-2.6
X4.2Y-2.7
X4.2Y-2.85
X4.25Y-1.575
X4.25Y-1.65
X4.25Y-1.75
X4.25Y-1.95
X4.25Y-2.05
X4.25Y-2.15
X4.25Y-2.25
X4.25Y-2.35
X4.25Y-2.45
X4.25Y-2.65
X4.25Y-2.75
X4.3Y-1.7
X4.3Y-1.8
X4.3Y-2.0
X4.3Y-2.1
X4.3Y-2.2
X4.3Y-2.3
X4.3Y-2.4
X4.3Y-2.5
X4.3Y-2.6
X4.3Y-2.7
X4.3Y-2.825
X4.35Y-1.55
X4.35Y-1.65
X4.35Y-1.75
X4.35Y-1.85
X4.35Y-2.05
X4.35Y-2.15
X4.35Y-2.25
X4.35Y-2.35
X4.35Y-2.45
X4.35Y-2.65
X4.35Y-2.75
X4.4Y-1.7
X4.4Y-1.8
X4.4Y-1.9
X4.4Y-2.1
X4.4Y-2.2
X4.4Y-2.3
X4.4Y-2.4
X4.4Y-2.6
X4.4Y-2.7
X4.4Y-2.85
X4.425Y-2.0
X4.425Y-2.525
X4.45Y-1.575
X4.45Y-1.65
X4.45Y-1.75
X4.45Y-2.15
X4.45Y-2.25
X4.45Y-2.35
X4.45Y-2.65
X4.45Y-2.75
X4.5Y-1.7
X4.5Y-2.1
X4.5Y-2.2
X4.5Y-2.3
X4.5Y-2.6
X4.5Y-2.7
X4.5Y-2.8
X4.55Y-1.55
X4.55Y-1.65
X4.55Y-1.7
X4.55Y-1.775
X4.55Y-2.15
X4.55Y-2.25
X4.55Y-2.35
X4.55Y-2.65
X4.55Y-2.75
X4.55Y-2.85
X4.575Y-2.525
X4.575Y-2.6
X4.6Y-1.675
X4.6Y-1.925
X4.6Y-2.0
X4.6Y-2.4
X4.6Y-2.8
X4.625Y-2.725
X4.65Y-1.55
X4.65Y-1.675
X4.65Y-2.35
X4.65Y-2.85
X4.675Y-1.925
X4.675Y-2.025
X4.675Y-2.725
X4.7Y-1.575
X4.7Y-1.625
X4.7Y-2.1
X4.7Y-2.2
X4.7Y-2.8
X4.725Y-1.675
X4.725Y-1.9
X4.725Y-1.975
X4.725Y-2.725
X4.75Y-1.55
X4.75Y-1.625
X4.75Y-2.15
X4.75Y-2.25
X4.75Y-2.4
X4.75Y-2.45
X4.75Y-2.525
X4.75Y-2.575
X4.75Y-2.65
X4.75Y-2.7
X4.75Y-2.85
X4.775Y-1.925
X4.775Y-2.025
X4.8Y-1.675
X4.8Y-2.1
X4.8Y-2.2
X4.8Y-2.4
X4.825Y-2.625
X4.825Y-2.725
X4.85Y-1.55
X4.85Y-1.675
X4.85Y-1.925
X4.85Y-2.025
X4.85Y-2.45
X4.85Y-2.55
X4.85Y-2.85
X4.875Y-2.675
X4.9Y-1.7
X4.9Y-1.775
X4.9Y-2.4
X4.9Y-2.5
X4.9Y-2.8
X4.925Y-2.725
X4.95Y-1.55
X4.95Y-1.75
X4.95Y-1.85
X4.95Y-2.2
X4.95Y-2.275
X4.95Y-2.45
X4.95Y-2.85
X4.975Y-1.7
X4.975Y-2.675
X5.0Y-1.6
X5.0Y-1.925
X5.0Y-2.025
X5.0Y-2.1
X5.0Y-2.25
X5.0Y-2.725
X5.0Y-2.8
X5.025Y-2.45
X5.05Y-1.55
X5.05Y-2.2
X5.05Y-2.55
X5.05Y-2.85
X5.1Y-1.6
X5.1Y-1.8
X5.1Y-1.9
X5.1Y-2.2
X5.1Y-2.5
X5.1Y-2.6
X5.1Y-2.8
X5.15Y-1.55
X5.15Y-1.85
X5.15Y-1.95
X5.15Y-2.15
X5.15Y-2.25
X5.15Y-2.375
X5.15Y-2.45
X5.15Y-2.55
X5.15Y-2.725
X5.15Y-2.85
X5.175Y-1.725
X5.175Y-2.675
X5.2Y-1.6
X5.2Y-1.8
X5.2Y-1.9
X5.2Y-2.0
X5.2Y-2.1
X5.2Y-2.2
X5.2Y-2.3
X5.2Y-2.4
X5.2Y-2.5
X5.2Y-2.6
X5.2Y-2.8
X5.25Y-1.55
X5.25Y-1.65
X5.25Y-1.85
X5.25Y-1.95
X5.25Y-2.15
X5.25Y-2.25
X5.25Y-2.45
X5.25Y-2.55
X5.25Y-2.85
X5.3Y-1.6
X5.3Y-1.7
X5.3Y-1.9
X5.3Y-2.5
X5.3Y-2.7
X5.3Y-2.8
X5.35Y-1.55
X5.35Y-1.65
X5.35Y-1.75
X5.35Y-1.85
X5.35Y-1.95
X5.35Y-2.15
X5.35Y-2.25
X5.35Y-2.45
X5.35Y-2.55
X5.35Y-2.65
X5.35Y-2.75
X5.35Y-2.85
X5.4Y-1.6
X5.4Y-1.7
X5.4Y-1.9
X5.4Y-2.5
X5.4Y-2.7
X5.4Y-2.8
X5.45Y-1.55
X5.45Y-1.65
X5.45Y-1.85
X5.45Y-1.95
X5.45Y-2.15
X5.45Y-2.25
X5.45Y-2.45
X5.45Y-2.55
X5.45Y-2.75
X5.45Y-2.85
X5.5Y-1.6
X5.5Y-1.9
X5.5Y-2.0
X5.5Y-2.1
X5.5Y-2.2
X5.5Y-2.3
X5.5Y-2.4
X5.5Y-2.5
X5.5Y-2.8
X5.55Y-1.55
X5.55Y-1.65
X5.55Y-1.75
X5.55Y-1.85
X5.55Y-1.95
X5.55Y-2.15
X5.55Y-2.25
X5.55Y-2.45
X5.55Y-2.55
X5.55Y-2.65
X5.55Y-2.75
X5.55Y-2.85
X5.6Y-1.6
X5.6Y-1.7
X5.6Y-1.9
X5.6Y-2.0
X5.6Y-2.1
X5.6Y-2.2
X5.6Y-2.3
X5.6Y-2.4
X5.6Y-2.5
X5.6Y-2.7
X5.6Y-2.8
X5.65Y-1.55
X5.65Y-1.65
X5.65Y-1.75
X5.65Y-1.85
X5.65Y-2.15
X5.65Y-2.25
X5.65Y-2.55
X5.65Y-2.65
X5.65Y-2.75
X5.65Y-2.85
X5.7Y-1.6
X5.7Y-1.7
X5.7Y-1.9
X5.7Y-2.0
X5.7Y-2.1
X5.7Y-2.2
X5.7Y-2.3
X5.7Y-2.4
X5.7Y-2.5
X5.7Y-2.7
X5.7Y-2.8
X5.75Y-1.55
X5.75Y-1.65
X5.75Y-1.75
X5.75Y-1.85
X5.75Y-1.95
X5.75Y-2.15
X5.75Y-2.25
X5.75Y-2.45
X5.75Y-2.55
X5.75Y-2.65
X5.75Y-2.75
X5.75Y-2.85
X5.8Y-1.6
X5.8Y-1.7
X5.8Y-1.9
X5.8Y-2.0
X5.8Y-2.1
X5.8Y-2.2
X5.8Y-2.3
X5.8Y-2.4
X5.8Y-2.5
X5.8Y-2.7
X5.8Y-2.8
X5.85Y-1.55
X5.85Y-1.65
X5.85Y-1.75
X5.85Y-1.85
X5.85Y-1.95
X5.85Y-2.15
X5.85Y-2.25
X5.85Y-2.45
X5.85Y-2.55
X5.85Y-2.65
X5.85Y-2.75
X5.85Y-2.85
X5.9Y-1.6
X5.9Y-1.7
X5.9Y-1.9
X5.9Y-2.5
X5.9Y-2.7
X5.9Y-2.8
X5.95Y-1.55
X5.95Y-1.65
X5.95Y-1.75
X5.95Y-1.85
X5.95Y-1.95
X5.95Y-2.15
X5.95Y-2.25
X5.95Y-2.45
X5.95Y-2.55
X5.95Y-2.65
X5.95Y-2.75
X5.95Y-2.85
X6.0Y-1.6
X6.0Y-1.7
X6.0Y-1.9
X6.0Y-2.5
X6.0Y-2.7
X6.0Y-2.8
X6.05Y-1.55
X6.05Y-1.65
X6.05Y-1.75
X6.05Y-1.85
X6.05Y-1.95
X6.05Y-2.15
X6.05Y-2.25
X6.05Y-2.45
X6.05Y-2.55
X6.05Y-2.65
X6.05Y-2.75
X6.05Y-2.85
X6.1Y-1.6
X6.1Y-1.7
X6.1Y-1.9
X6.1Y-2.0
X6.1Y-2.1
X6.1Y-2.2
X6.1Y-2.3
X6.1Y-2.4
X6.1Y-2.5
X6.1Y-2.7
X6.1Y-2.8
X6.15Y-1.55
X6.15Y-1.65
X6.15Y-1.75
X6.15Y-1.85
X6.15Y-1.95
X6.15Y-2.15
X6.15Y-2.25
X6.15Y-2.45
X6.15Y-2.55
X6.15Y-2.65
X6.15Y-2.75
X6.15Y-2.85
X6.2Y-1.6
X6.2Y-1.7
X6.2Y-1.9
X6.2Y-2.0
X6.2Y-2.1
X6.2Y-2.2
X6.2Y-2.3
X6.2Y-2.4
X6.2Y-2.5
X6.2Y-2.7
X6.2Y-2.8
X6.25Y-1.55
X6.25Y-1.65
X6.25Y-1.75
X6.25Y-1.85
X6.25Y-2.15
X6.25Y-2.25
X6.25Y-2.55
X6.25Y-2.65
X6.25Y-2.75
X6.25Y-2.85
X6.3Y-1.6
X6.3Y-1.7
X6.3Y-1.9
X6.3Y-2.0
X6.3Y-2.1
X6.3Y-2.2
X6.3Y-2.3
X6.3Y-2.4
X6.3Y-2.5
X6.3Y-2.7
X6.3Y-2.8
X6.35Y-1.55
X6.35Y-1.65
X6.35Y-1.75
X6.35Y-1.85
X6.35Y-1.95
X6.35Y-2.15
X6.35Y-2.25
X6.35Y-2.45
X6.35Y-2.55
X6.35Y-2.65
X6.35Y-2.75
X6.35Y-2.85
X6.4Y-1.6
X6.4Y-1.7
X6.4Y-1.9
X6.4Y-2.0
X6.4Y-2.1
X6.4Y-2.2
X6.4Y-2.3
X6.4Y-2.4
X6.4Y-2.5
X6.4Y-2.7
X6.4Y-2.8
X6.45Y-1.55
X6.45Y-1.65
X6.45Y-1.75
X6.45Y-1.85
X6.45Y-1.95
X6.45Y-2.15
X6.45Y-2.25
X6.45Y-2.45
X6.45Y-2.55
X6.45Y-2.65
X6.45Y-2.75
X6.45Y-2.85
X6.5Y-1.6
X6.5Y-1.7
X6.5Y-1.9
X6.5Y-2.5
X6.5Y-2.7
X6.5Y-2.8
X6.55Y-1.55
X6.55Y-1.65
X6.55Y-1.75
X6.55Y-1.85
X6.55Y-1.95
X6.55Y-2.45
X6.55Y-2.55
X6.55Y-2.65
X6.55Y-2.75
X6.55Y-2.85
X6.6Y-1.6
X6.6Y-1.7
X6.6Y-1.9
X6.6Y-2.5
X6.6Y-2.7
X6.6Y-2.8
X6.65Y-1.55
X6.65Y-1.65
X6.65Y-1.75
X6.65Y-1.85
X6.65Y-1.95
X6.65Y-2.15
X6.65Y-2.25
X6.65Y-2.45
X6.65Y-2.55
X6.65Y-2.65
X6.65Y-2.75
X6.65Y-2.85
X6.7Y-1.6
X6.7Y-1.7
X6.7Y-1.9
X6.7Y-2.0
X6.7Y-2.1
X6.7Y-2.2
X6.7Y-2.3
X6.7Y-2.4
X6.7Y-2.5
X6.7Y-2.7
X6.7Y-2.8
X6.75Y-1.55
X6.75Y-1.65
X6.75Y-1.75
X6.75Y-1.85
X6.75Y-1.95
X6.75Y-2.15
X6.75Y-2.25
X6.75Y-2.45
X6.75Y-2.55
X6.75Y-2.65
X6.75Y-2.75
X6.75Y-2.85
X6.8Y-1.6
X6.8Y-1.7
X6.8Y-1.9
X6.8Y-2.0
X6.8Y-2.1
X6.8Y-2.2
X6.8Y-2.3
X6.8Y-2.4
X6.8Y-2.5
X6.8Y-2.7
X6.8Y-2.8
X6.85Y-1.55
X6.85Y-1.65
X6.85Y-1.75
X6.85Y-1.85
X6.85Y-2.15
X6.85Y-2.25
X6.85Y-2.55
X6.85Y-2.65
X6.85Y-2.75
X6.85Y-2.85
X6.9Y-1.6
X6.9Y-1.7
X6.9Y-1.9
X6.9Y-2.0
X6.9Y-2.1
X6.9Y-2.2
X6.9Y-2.3
X6.9Y-2.4
X6.9Y-2.5
X6.9Y-2.7
X6.9Y-2.8
X6.95Y-1.55
X6.95Y-1.65
X6.95Y-1.75
X6.95Y-1.85
X6.95Y-1.95
X6.95Y-2.15
X6.95Y-2.25
X6.95Y-2.45
X6.95Y-2.55
X6.95Y-2.65
X6.95Y-2.75
X6.95Y-2.85
X7.0Y-1.6
X7.0Y-1.7
X7.0Y-1.9
X7.0Y-2.0
X7.0Y-2.1
X7.0Y-2.2
X7.0Y-2.3
X7.0Y-2.4
X7.0Y-2.5
X7.0Y-2.7
X7.0Y-2.8
X7.05Y-1.55
X7.05Y-1.65
X7.05Y-1.75
X7.05Y-1.85
X7.05Y-1.95
X7.05Y-2.15
X7.05Y-2.25
X7.05Y-2.45
X7.05Y-2.55
X7.05Y-2.65
X7.05Y-2.75
X7.05Y-2.85
X7.1Y-1.6
X7.1Y-1.7
X7.1Y-1.9
X7.1Y-2.5
X7.1Y-2.7
X7.1Y-2.8
X7.15Y-1.55
X7.15Y-1.65
X7.15Y-1.75
X7.15Y-1.85
X7.15Y-1.95
X7.15Y-2.15
X7.15Y-2.25
X7.15Y-2.45
X7.15Y-2.55
X7.15Y-2.65
X7.15Y-2.75
X7.15Y-2.85
X7.2Y-1.6
X7.2Y-1.7
X7.2Y-1.9
X7.2Y-2.5
X7.2Y-2.7
X7.2Y-2.8
X7.25Y-1.55
X7.25Y-1.65
X7.25Y-1.75
X7.25Y-1.85
X7.25Y-1.95
X7.25Y-2.15
X7.25Y-2.25
X7.25Y-2.45
X7.25Y-2.55
X7.25Y-2.65
X7.25Y-2.75
X7.25Y-2.85
X7.3Y-1.6
X7.3Y-1.7
X7.3Y-1.9
X7.3Y-2.0
X7.3Y-2.1
X7.3Y-2.2
X7.3Y-2.3
X7.3Y-2.4
X7.3Y-2.5
X7.3Y-2.7
X7.3Y-2.8
X7.35Y-1.55
X7.35Y-1.65
X7.35Y-1.75
X7.35Y-1.85
X7.35Y-1.95
X7.35Y-2.15
X7.35Y-2.25
X7.35Y-2.45
X7.35Y-2.55
X7.35Y-2.65
X7.35Y-2.75
X7.35Y-2.85
X7.4Y-1.6
X7.4Y-1.7
X7.4Y-1.9
X7.4Y-2.0
X7.4Y-2.1
X7.4Y-2.2
X7.4Y-2.3
X7.4Y-2.4
X7.4Y-2.5
X7.4Y-2.7
X7.4Y-2.8
X7.45Y-1.55
X7.45Y-1.65
X7.45Y-1.75
X7.45Y-1.85
X7.45Y-2.15
X7.45Y-2.25
X7.45Y-2.55
X7.45Y-2.65
X7.45Y-2.75
X7.45Y-2.85
X7.5Y-1.6
X7.5Y-1.7
X7.5Y-1.9
X7.5Y-2.0
X7.5Y-2.1
X7.5Y-2.2
X7.5Y-2.3
X7.5Y-2.4
X7.5Y-2.5
X7.5Y-2.7
X7.5Y-2.8
X7.55Y-1.55
X7.55Y-1.65
X7.55Y-1.75
X7.55Y-1.85
X7.55Y-1.95
X7.55Y-2.15
X7.55Y-2.25
X7.55Y-2.45
X7.55Y-2.55
X7.55Y-2.65
X7.55Y-2.75
X7.55Y-2.85
X7.6Y-1.6
X7.6Y-1.7
X7.6Y-1.9
X7.6Y-2.0
X7.6Y-2.1
X7.6Y-2.2
X7.6Y-2.3
X7.6Y-2.4
X7.6Y-2.5
X7.6Y-2.7
X7.6Y-2.8
X7.65Y-1.55
X7.65Y-1.65
X7.65Y-1.75
X7.65Y-1.85
X7.65Y-1.95
X7.65Y-2.15
X7.65Y-2.25
X7.65Y-2.45
X7.65Y-2.55
X7.65Y-2.65
X7.65Y-2.75
X7.65Y-2.85
X7.7Y-1.6
X7.7Y-1.7
X7.7Y-1.9
X7.7Y-2.5
X7.7Y-2.7
X7.7Y-2.8
X7.75Y-1.55
X7.75Y-1.65
X7.75Y-1.75
X7.75Y-1.85
X7.75Y-1.95
X7.75Y-2.45
X7.75Y-2.55
X7.75Y-2.65
X7.75Y-2.75
X7.75Y-2.85
X7.8Y-1.6
X7.8Y-1.7
X7.8Y-1.9
X7.8Y-2.5
X7.8Y-2.7
X7.8Y-2.8
X7.85Y-1.55
X7.85Y-1.65
X7.85Y-1.75
X7.85Y-1.85
X7.85Y-1.95
X7.85Y-2.15
X7.85Y-2.25
X7.85Y-2.45
X7.85Y-2.55
X7.85Y-2.65
X7.85Y-2.75
X7.85Y-2.85
X7.9Y-1.6
X7.9Y-1.7
X7.9Y-1.9
X7.9Y-2.0
X7.9Y-2.1
X7.9Y-2.2
X7.9Y-2.3
X7.9Y-2.4
X7.9Y-2.5
X7.9Y-2.7
X7.9Y-2.8
X7.95Y-1.55
X7.95Y-1.65
X7.95Y-1.75
X7.95Y-1.85
X7.95Y-1.95
X7.95Y-2.15
X7.95Y-2.25
X7.95Y-2.45
X7.95Y-2.55
X7.95Y-2.65
X7.95Y-2.75
X7.95Y-2.85
X8.0Y-1.6
X8.0Y-1.7
X8.0Y-1.9
X8.0Y-2.0
X8.0Y-2.1
X8.0Y-2.2
X8.0Y-2.3
X8.0Y-2.4
X8.0Y-2.5
X8.0Y-2.7
X8.0Y-2.8
X8.05Y-1.55
X8.05Y-1.65
X8.05Y-1.75
X8.05Y-1.85
X8.05Y-2.15
X8.05Y-2.25
X8.05Y-2.55
X8.05Y-2.65
X8.05Y-2.75
X8.05Y-2.85
X8.1Y-1.6
X8.1Y-1.7
X8.1Y-1.9
X8.1Y-2.0
X8.1Y-2.1
X8.1Y-2.2
X8.1Y-2.3
X8.1Y-2.4
X8.1Y-2.5
X8.1Y-2.7
X8.1Y-2.8
X8.15Y-1.55
X8.15Y-1.65
X8.15Y-1.75
X8.15Y-1.85
X8.15Y-1.95
X8.15Y-2.15
X8.15Y-2.25
X8.15Y-2.45
X8.15Y-2.55
X8.15Y-2.65
X8.15Y-2.75
X8.15Y-2.85
X8.2Y-1.6
X8.2Y-1.7
X8.2Y-1.9
X8.2Y-2.0
X8.2Y-2.1
X8.2Y-2.2
X8.2Y-2.3
X8.2Y-2.4
X8.2Y-2.5
X8.2Y-2.7
X8.2Y-2.8
X8.25Y-1.55
X8.25Y-1.65
X8.25Y-1.75
X8.25Y-1.85
X8.25Y-1.95
X8.25Y-2.15
X8.25Y-2.25
X8.25Y-2.45
X8.25Y-2.55
X8.25Y-2.65
X8.25Y-2.75
X8.25Y-2.85
X8.3Y-1.6
X8.3Y-1.7
X8.3Y-1.9
X8.3Y-2.5
X8.3Y-2.7
X8.3Y-2.8
X8.35Y-1.55
X8.35Y-1.65
X8.35Y-1.75
X8.35Y-1.85
X8.35Y-1.95
X8.35Y-2.15
X8.35Y-2.25
X8.35Y-2.45
X8.35Y-2.55
X8.35Y-2.65
X8.35Y-2.75
X8.35Y-2.85
X8.4Y-1.6
X8.4Y-1.7
X8.4Y-1.9
X8.4Y-2.5
X8.4Y-2.7
X8.4Y-2.8
X8.45Y-1.55
X8.45Y-1.65
X8.45Y-1.75
X8.45Y-1.85
X8.45Y-1.95
X8.45Y-2.15
X8.45Y-2.25
X8.45Y-2.45
X8.45Y-2.55
X8.45Y-2.65
X8.45Y-2.75
X8.45Y-2.85
X8.5Y-1.6
X8.5Y-1.7
X8.5Y-1.9
X8.5Y-2.0
X8.5Y-2.1
X8.5Y-2.2
X8.5Y-2.3
X8.5Y-2.4
X8.5Y-2.5
X8.5Y-2.7
X8.5Y-2.8
X8.55Y-1.55
X8.55Y-1.65
X8.55Y-1.75
X8.55Y-1.85
X8.55Y-1.95
X8.55Y-2.15
X8.55Y-2.25
X8.55Y-2.45
X8.55Y-2.55
X8.55Y-2.65
X8.55Y-2.75
X8.55Y-2.85
X8.6Y-1.6
X8.6Y-1.7
X8.6Y-1.9
X8.6Y-2.0
X8.6Y-2.1
X8.6Y-2.2
X8.6Y-2.3
X8.6Y-2.4
X8.6Y-2.5
X8.6Y-2.7
X8.6Y-2.8
X8.65Y-1.55
X8.65Y-1.65
X8.65Y-1.75
X8.65Y-1.85
X8.65Y-2.15
X8.65Y-2.25
X8.65Y-2.55
X8.65Y-2.65
X8.65Y-2.75
X8.65Y-2.85
X8.7Y-1.6
X8.7Y-1.7
X8.7Y-1.9
X8.7Y-2.0
X8.7Y-2.1
X8.7Y-2.2
X8.7Y-2.3
X8.7Y-2.4
X8.7Y-2.5
X8.7Y-2.7
X8.7Y-2.8
X8.75Y-1.55
X8.75Y-1.65
X8.75Y-1.75
X8.75Y-1.85
X8.75Y-1.95
X8.75Y-2.15
X8.75Y-2.25
X8.75Y-2.45
X8.75Y-2.55
X8.75Y-2.65
X8.75Y-2.75
X8.75Y-2.85
X8.8Y-1.6
X8.8Y-1.7
X8.8Y-1.9
X8.8Y-2.0
X8.8Y-2.1
X8.8Y-2.2
X8.8Y-2.3
X8.8Y-2.4
X8.8Y-2.5
X8.8Y-2.7
X8.8Y-2.8
X8.85Y-1.55
X8.85Y-1.65
X8.85Y-1.75
X8.85Y-1.85
X8.85Y-1.95
X8.85Y-2.15
X8.85Y-2.25
X8.85Y-2.45
X8.85Y-2.55
X8.85Y-2.65
X8.85Y-2.75
X8.85Y-2.85
X8.9Y-1.6
X8.9Y-1.7
X8.9Y-1.9
X8.9Y-2.5
X8.9Y-2.7
X8.9Y-2.8
X8.95Y-1.55
X8.95Y-1.65
X8.95Y-1.75
X8.95Y-1.85
X8.95Y-1.95
X8.95Y-2.15
X8.95Y-2.25
X8.95Y-2.45
X8.95Y-2.55
X8.95Y-2.65
X8.95Y-2.75
X8.95Y-2.85
X9.0Y-1.6
X9.0Y-1.7
X9.0Y-1.9
X9.0Y-2.5
X9.0Y-2.7
X9.0Y-2.8
X9.05Y-1.55
X9.05Y-1.65
X9.05Y-1.75
X9.05Y-1.85
X9.05Y-1.95
X9.05Y-2.15
X9.05Y-2.25
X9.05Y-2.45
X9.05Y-2.55
X9.05Y-2.65
X9.05Y-2.75
X9.05Y-2.85
X9.1Y-1.6
X9.1Y-1.7
X9.1Y-1.9
X9.1Y-2.0
X9.1Y-2.1
X9.1Y-2.2
X9.1Y-2.3
X9.1Y-2.4
X9.1Y-2.5
X9.1Y-2.7
X9.1Y-2.8
X9.15Y-1.55
X9.15Y-1.65
X9.15Y-1.75
X9.15Y-1.85
X9.15Y-1.95
X9.15Y-2.15
X9.15Y-2.25
X9.15Y-2.45
X9.15Y-2.55
X9.15Y-2.65
X9.15Y-2.75
X9.15Y-2.85
X9.2Y-1.6
X9.2Y-1.7
X9.2Y-1.9
X9.2Y-2.0
X9.2Y-2.1
X9.2Y-2.2
X9.2Y-2.3
X9.2Y-2.4
X9.2Y-2.5
X9.2Y-2.7
X9.2Y-2.8
X9.25Y-1.55
X9.25Y-1.65
X9.25Y-1.75
X9.25Y-1.85
X9.25Y-2.15
X9.25Y-2.25
X9.25Y-2.55
X9.25Y-2.65
X9.25Y-2.75
X9.25Y-2.85
X9.3Y-1.6
X9.3Y-1.7
X9.3Y-1.9
X9.3Y-2.0
X9.3Y-2.1
X9.3Y-2.2
X9.3Y-2.3
X9.3Y-2.4
X9.3Y-2.5
X9.3Y-2.7
X9.3Y-2.8
X9.35Y-1.55
X9.35Y-1.65
X9.35Y-1.75
X9.35Y-1.85
X9.35Y-1.95
X9.35Y-2.15
X9.35Y-2.25
X9.35Y-2.45
X9.35Y-2.55
X9.35Y-2.65
X9.35Y-2.75
X9.35Y-2.85
X9.4Y-1.6
X9.4Y-1.7
X9.4Y-1.9
X9.4Y-2.0
X9.4Y-2.1
X9.4Y-2.2
X9.4Y-2.3
X9.4Y-2.4
X9.4Y-2.5
X9.4Y-2.7
X9.4Y-2.8
X9.45Y-1.55
X9.45Y-1.65
X9.45Y-1.75
X9.45Y-1.85
X9.45Y-1.95
X9.45Y-2.15
X9.45Y-2.25
X9.45Y-2.45
X9.45Y-2.55
X9.45Y-2.65
X9.45Y-2.75
X9.45Y-2.85
X9.5Y-1.6
X9.5Y-1.7
X9.5Y-1.9
X9.5Y-2.5
X9.5Y-2.7
X9.5Y-2.8
X9.55Y-1.55
X9.55Y-1.65
X9.55Y-1.75
X9.55Y-1.85
X9.55Y-1.95
X9.55Y-2.15
X9.55Y-2.25
X9.55Y-2.45
X9.55Y-2.55
X9.55Y-2.65
X9.55Y-2.75
X9.55Y-2.85
X9.6Y-1.6
X9.6Y-1.7
X9.6Y-1.9
X9.6Y-2.5
X9.6Y-2.7
X9.6Y-2.8
X9.65Y-1.55
X9.65Y-1.65
X9.65Y-1.75
X9.65Y-1.85
X9.65Y-1.95
X9.65Y-2.15
X9.65Y-2.25
X9.65Y-2.45
X9.65Y-2.55
X9.65Y-2.65
X9.65Y-2.85
X9.7Y-2.1
X9.7Y-2.2
X9.7Y-2.3
X9.75Y-1.75
X9.75Y-1.85
X9.75Y-1.95
X9.75Y-2.05
X9.75Y-2.15
X9.75Y-2.25
X9.75Y-2.35
X9.75Y-2.45
X9.75Y-2.55
X9.8Y-1.8
X9.8Y-1.9
X9.8Y-2.0
X9.8Y-2.1
X9.8Y-2.2
X9.8Y-2.3
X9.8Y-2.4
X9.8Y-2.5
X9.8Y-2.6
X9.85Y-1.75
X9.85Y-1.85
X9.85Y-1.95
X9.85Y-2.05
X9.85Y-2.15
X9.85Y-2.25
X9.85Y-2.35
X9.85Y-2.45
X9.85Y-2.55
X9.85Y-2.65
T2
X4.5Y-2.4463
X4.5Y-2.525
X4.925Y-2.5659
X4.925Y-2.625
X5.65Y-2.0213
X5.65Y-2.1
X5.65Y-2.3
X5.65Y-2.3787
X6.25Y-2.0213
X6.25Y-2.1
X6.25Y-2.3
X6.25Y-2.3787
X6.85Y-2.0213
X6.85Y-2.1
X6.85Y-2.3
X6.85Y-2.3787
X7.45Y-2.0213
X7.45Y-2.1
X7.45Y-2.3
X7.45Y-2.3787
X8.05Y-2.0213
X8.05Y-2.1
X8.05Y-2.3
X8.05Y-2.3787
X8.65Y-2.0213
X8.65Y-2.1
X8.65Y-2.3
X8.65Y-2.3787
X9.25Y-2.0213
X9.25Y-2.1
X9.25Y-2.3
X9.25Y-2.3787
T3
X4.5766Y-1.85
X4.675Y-1.85
X4.775Y-1.85
X4.8734Y-1.85
X5.075Y-2.0
X5.075Y-2.1
X5.075Y-2.3
X5.075Y-2.4
T4
X4.625Y-2.1502
X4.625Y-2.2502
X4.875Y-2.15
X4.875Y-2.25
T5
X5.3Y-2.0
X5.3Y-2.1
X5.3Y-2.2
X5.3Y-2.3
X5.3Y-2.4
X5.4Y-2.0
X5.4Y-2.1
X5.4Y-2.2
X5.4Y-2.3
X5.4Y-2.4
X5.9Y-2.0
X5.9Y-2.1
X5.9Y-2.2
X5.9Y-2.3
X5.9Y-2.4
X6.0Y-2.0
X6.0Y-2.1
X6.0Y-2.2
X6.0Y-2.3
X6.0Y-2.4
X6.5Y-2.0
X6.5Y-2.1
X6.5Y-2.2
X6.5Y-2.3
X6.5Y-2.4
X6.6Y-2.0
X6.6Y-2.1
X6.6Y-2.2
X6.6Y-2.3
X6.6Y-2.4
X7.1Y-2.0
X7.1Y-2.1
X7.1Y-2.2
X7.1Y-2.3
X7.1Y-2.4
X7.2Y-2.0
X7.2Y-2.1
X7.2Y-2.2
X7.2Y-2.3
X7.2Y-2.4
X7.7Y-2.0
X7.7Y-2.1
X7.7Y-2.2
X7.7Y-2.3
X7.7Y-2.4
X7.8Y-2.0
X7.8Y-2.1
X7.8Y-2.2
X7.8Y-2.3
X7.8Y-2.4
X8.3Y-2.0
X8.3Y-2.1
X8.3Y-2.2
X8.3Y-2.3
X8.3Y-2.4
X8.4Y-2.0
X8.4Y-2.1
X8.4Y-2.2
X8.4Y-2.3
X8.4Y-2.4
X8.9Y-2.0
X8.9Y-2.1
X8.9Y-2.2
X8.9Y-2.3
X8.9Y-2.4
X9.0Y-2.0
X9.0Y-2.1
X9.0Y-2.2
X9.0Y-2.3
X9.0Y-2.4
X9.5Y-2.0
X9.5Y-2.1
X9.5Y-2.2
X9.5Y-2.3
X9.5Y-2.4
X9.6Y-2.0
X9.6Y-2.1
X9.6Y-2.2
X9.6Y-2.3
X9.6Y-2.4
T6
X2.25Y-1.75
X2.25Y-2.15
X2.25Y-2.25
X2.25Y-2.65
X4.525Y-1.975
X4.625Y-1.75
X4.675Y-2.45
X4.675Y-2.55
X4.675Y-2.65
X4.725Y-1.75
X4.825Y-1.75
X4.925Y-1.975
X5.075Y-1.725
X5.075Y-2.675
X5.475Y-1.725
X5.475Y-2.675
T7
X2.0Y-2.2
X2.1Y-2.2
T8
X2.65Y-1.7047
X2.65Y-2.0
X2.65Y-2.4
X2.65Y-2.6953
X3.35Y-1.7047
X3.35Y-2.0
X3.35Y-2.4
X3.35Y-2.6953
X4.05Y-1.7047
X4.05Y-2.0
X4.05Y-2.4
X4.05Y-2.6953
T0
M30
